<svg width="32" height="32" fill="none" xmlns="http://www.w3.org/2000/svg"><path opacity=".4" d="M10.414 2.667h11.16c4.866 0 7.76 2.893 7.76 7.746v11.16c0 4.854-2.894 7.747-7.747 7.747H10.414c-4.854.013-7.747-2.88-7.747-7.733V10.413c0-4.853 2.893-7.746 7.747-7.746z" fill="#fff"/><path d="m7.293 15.293 5.72-5.72a1.006 1.006 0 0 1 1.414 0 1.006 1.006 0 0 1 0 1.414L10.413 15H24c.547 0 1 .453 1 1 0 .547-.453 1-1 1H10.413l4.014 4.013a1.006 1.006 0 0 1 0 1.414.99.99 0 0 1-.707.293.99.99 0 0 1-.707-.293l-5.72-5.72a1 1 0 0 1 0-1.414z" fill="#fff"/></svg>