<svg width="25" height="24" viewBox="0 0 25 24" fill="none" xmlns="http://www.w3.org/2000/svg">
<rect opacity="0.4" width="20" height="20" rx="10" fill="#484058"/>
<path d="M10.2904 11.7722C9.87652 11.7722 9.53327 11.429 9.53327 11.015V10.8031C9.53327 9.63199 10.3914 9.05652 10.7144 8.83442C11.088 8.58203 11.2091 8.41041 11.2091 8.14793C11.2091 7.64314 10.7952 7.22919 10.2904 7.22919C9.78566 7.22919 9.37177 7.64314 9.37177 8.14793C9.37177 8.56185 9.02852 8.9051 8.61459 8.9051C8.20067 8.9051 7.85742 8.56185 7.85742 8.14793C7.85742 6.80521 8.94772 5.71484 10.2904 5.71484C11.6332 5.71484 12.7235 6.80521 12.7235 8.14793C12.7235 9.29883 11.8755 9.87426 11.5625 10.0863C11.1688 10.3488 11.0476 10.5204 11.0476 10.8031V11.015C11.0476 11.4391 10.7044 11.7722 10.2904 11.7722Z" fill="white"/>
<path d="M10.2904 14.2858C9.86636 14.2858 9.5332 13.9426 9.5332 13.5287C9.5332 13.1147 9.87645 12.7715 10.2904 12.7715C10.7043 12.7715 11.0475 13.1147 11.0475 13.5287C11.0475 13.9426 10.7144 14.2858 10.2904 14.2858Z" fill="white"/>
</svg>
