<svg width="16" height="16" viewBox="0 0 16 16" fill="none" xmlns="http://www.w3.org/2000/svg">
<path d="M7.06925 2.76538V3.9987H6.0826C5.00927 3.9987 4.46928 4.53869 4.46928 5.61202V11.9987H2.76929C1.81595 11.9987 1.33594 11.5187 1.33594 10.5653V2.76538C1.33594 1.81205 1.81595 1.33203 2.76929 1.33203H5.63595C6.58928 1.33203 7.06925 1.81205 7.06925 2.76538Z" fill="#252729"/>
<path opacity="0.4" d="M11.5821 5.61332V13.0533C11.5821 14.1267 11.0488 14.6667 9.97542 14.6667H6.08207C5.00874 14.6667 4.46875 14.1267 4.46875 13.0533V5.61332C4.46875 4.53999 5.00874 4 6.08207 4H9.97542C11.0488 4 11.5821 4.53999 11.5821 5.61332Z" fill="#252729"/>
<path d="M14.663 2.76538V10.5653C14.663 11.5187 14.183 11.9987 13.2297 11.9987H11.5763V5.61202C11.5763 4.53869 11.043 3.9987 9.96969 3.9987H8.92969V2.76538C8.92969 1.81205 9.40966 1.33203 10.363 1.33203H13.2297C14.183 1.33203 14.663 1.81205 14.663 2.76538Z" fill="#252729"/>
<path d="M9.33073 7.83203H6.66406C6.39073 7.83203 6.16406 7.60536 6.16406 7.33203C6.16406 7.0587 6.39073 6.83203 6.66406 6.83203H9.33073C9.60406 6.83203 9.83073 7.0587 9.83073 7.33203C9.83073 7.60536 9.60406 7.83203 9.33073 7.83203Z" fill="#252729"/>
<path d="M9.33073 9.83203H6.66406C6.39073 9.83203 6.16406 9.60536 6.16406 9.33203C6.16406 9.0587 6.39073 8.83203 6.66406 8.83203H9.33073C9.60406 8.83203 9.83073 9.0587 9.83073 9.33203C9.83073 9.60536 9.60406 9.83203 9.33073 9.83203Z" fill="#252729"/>
<path d="M8.5 12.668V14.668H7.5V12.668C7.5 12.3946 7.72667 12.168 8 12.168C8.27333 12.168 8.5 12.3946 8.5 12.668Z" fill="#252729"/>
</svg>
