<svg width="16" height="16" viewBox="0 0 16 16" fill="none" xmlns="http://www.w3.org/2000/svg">
<path d="M14.6693 14.168H1.33594C1.0626 14.168 0.835938 14.3946 0.835938 14.668C0.835938 14.9413 1.0626 15.168 1.33594 15.168H14.6693C14.9426 15.168 15.1693 14.9413 15.1693 14.668C15.1693 14.3946 14.9426 14.168 14.6693 14.168Z" fill="#252729"/>
<path opacity="0.4" d="M11.3333 1.33203H4.66667C2.66667 1.33203 2 2.52536 2 3.9987V14.6654H14V3.9987C14 2.52536 13.3333 1.33203 11.3333 1.33203Z" fill="#252729"/>
<path d="M6.66406 11.5H4.66406C4.39073 11.5 4.16406 11.2733 4.16406 11C4.16406 10.7267 4.39073 10.5 4.66406 10.5H6.66406C6.9374 10.5 7.16406 10.7267 7.16406 11C7.16406 11.2733 6.9374 11.5 6.66406 11.5Z" fill="#252729"/>
<path d="M11.3359 11.5H9.33594C9.0626 11.5 8.83594 11.2733 8.83594 11C8.83594 10.7267 9.0626 10.5 9.33594 10.5H11.3359C11.6093 10.5 11.8359 10.7267 11.8359 11C11.8359 11.2733 11.6093 11.5 11.3359 11.5Z" fill="#252729"/>
<path d="M6.66406 8.5H4.66406C4.39073 8.5 4.16406 8.27333 4.16406 8C4.16406 7.72667 4.39073 7.5 4.66406 7.5H6.66406C6.9374 7.5 7.16406 7.72667 7.16406 8C7.16406 8.27333 6.9374 8.5 6.66406 8.5Z" fill="#252729"/>
<path d="M11.3359 8.5H9.33594C9.0626 8.5 8.83594 8.27333 8.83594 8C8.83594 7.72667 9.0626 7.5 9.33594 7.5H11.3359C11.6093 7.5 11.8359 7.72667 11.8359 8C11.8359 8.27333 11.6093 8.5 11.3359 8.5Z" fill="#252729"/>
<path d="M6.66406 5.5H4.66406C4.39073 5.5 4.16406 5.27333 4.16406 5C4.16406 4.72667 4.39073 4.5 4.66406 4.5H6.66406C6.9374 4.5 7.16406 4.72667 7.16406 5C7.16406 5.27333 6.9374 5.5 6.66406 5.5Z" fill="#252729"/>
<path d="M11.3359 5.5H9.33594C9.0626 5.5 8.83594 5.27333 8.83594 5C8.83594 4.72667 9.0626 4.5 9.33594 4.5H11.3359C11.6093 4.5 11.8359 4.72667 11.8359 5C11.8359 5.27333 11.6093 5.5 11.3359 5.5Z" fill="#252729"/>
</svg>
