<svg width="16" height="16" viewBox="0 0 16 16" fill="none" xmlns="http://www.w3.org/2000/svg">
<path opacity="0.4" d="M9.9974 2.66797H5.9974C4.1574 2.66797 2.66406 4.1613 2.66406 6.0013V10.0013C2.66406 11.8413 4.1574 13.3346 5.9974 13.3346H9.9974C11.8374 13.3346 13.3307 11.8413 13.3307 10.0013V6.0013C13.3307 4.1613 11.8374 2.66797 9.9974 2.66797ZM11.5041 9.50797C11.5041 10.6146 10.6107 11.508 9.50406 11.508H6.49073C5.38406 11.508 4.49073 10.6146 4.49073 9.50797V6.49464C4.49073 5.38797 5.38406 4.49464 6.49073 4.49464H9.4974C10.6041 4.49464 11.4974 5.38797 11.4974 6.49464V9.50797H11.5041Z" fill="#252729"/>
<path d="M6.03906 1.83203V2.66536H5.99906C5.66573 2.66536 5.34573 2.71203 5.03906 2.80536V1.83203C5.03906 1.5587 5.25906 1.33203 5.53906 1.33203C5.8124 1.33203 6.03906 1.5587 6.03906 1.83203Z" fill="#252729"/>
<path d="M8.5 1.83203V2.66536H7.5V1.83203C7.5 1.5587 7.72667 1.33203 8 1.33203C8.27333 1.33203 8.5 1.5587 8.5 1.83203Z" fill="#252729"/>
<path d="M10.9688 1.83203V2.80536C10.6621 2.71203 10.3354 2.66536 10.0021 2.66536H9.96875V1.83203C9.96875 1.5587 10.1954 1.33203 10.4687 1.33203C10.7421 1.33203 10.9688 1.5587 10.9688 1.83203Z" fill="#252729"/>
<path d="M14.6686 5.53516C14.6686 5.81516 14.4486 6.03516 14.1686 6.03516H13.3353V6.00182C13.3353 5.66849 13.2886 5.34182 13.1953 5.03516H14.1686C14.4486 5.03516 14.6686 5.26182 14.6686 5.53516Z" fill="#252729"/>
<path d="M14.6693 8C14.6693 8.27333 14.4493 8.5 14.1693 8.5H13.3359V7.5H14.1693C14.4493 7.5 14.6693 7.72 14.6693 8Z" fill="#252729"/>
<path d="M14.6686 10.4648C14.6686 10.7382 14.4486 10.9648 14.1686 10.9648H13.1953C13.2886 10.6582 13.3353 10.3315 13.3353 9.99818V9.96484H14.1686C14.4486 9.96484 14.6686 10.1848 14.6686 10.4648Z" fill="#252729"/>
<path d="M10.9688 13.1914V14.1647C10.9688 14.4381 10.7421 14.6647 10.4687 14.6647C10.1954 14.6647 9.96875 14.4381 9.96875 14.1647V13.3314H10.0021C10.3354 13.3314 10.6621 13.2847 10.9688 13.1914Z" fill="#252729"/>
<path d="M8.50781 13.332V14.1654C8.50781 14.4387 8.28115 14.6654 8.00781 14.6654C7.72781 14.6654 7.50781 14.4387 7.50781 14.1654V13.332H8.50781Z" fill="#252729"/>
<path d="M6.03906 13.3314V14.1647C6.03906 14.4381 5.8124 14.6647 5.53906 14.6647C5.25906 14.6647 5.03906 14.4381 5.03906 14.1647V13.1914C5.34573 13.2847 5.66573 13.3314 5.99906 13.3314H6.03906Z" fill="#252729"/>
<path d="M2.80927 5.03516C2.71594 5.34182 2.66927 5.66849 2.66927 6.00182V6.03516H1.83594C1.5626 6.03516 1.33594 5.81516 1.33594 5.53516C1.33594 5.26182 1.5626 5.03516 1.83594 5.03516H2.80927Z" fill="#252729"/>
<path d="M2.66927 7.5V8.5H1.83594C1.5626 8.5 1.33594 8.27333 1.33594 8C1.33594 7.72 1.5626 7.5 1.83594 7.5H2.66927Z" fill="#252729"/>
<path d="M2.80927 10.9648H1.83594C1.5626 10.9648 1.33594 10.7382 1.33594 10.4648C1.33594 10.1848 1.5626 9.96484 1.83594 9.96484H2.66927V9.99818C2.66927 10.3315 2.71594 10.6582 2.80927 10.9648Z" fill="#252729"/>
<path d="M11.5055 6.49219V9.49885C11.5055 10.6055 10.6122 11.4989 9.50552 11.4989H6.49219C5.38552 11.4989 4.49219 10.6055 4.49219 9.49885V6.49219C4.49219 5.38552 5.38552 4.49219 6.49219 4.49219H9.49885C10.6055 4.49219 11.5055 5.39219 11.5055 6.49219Z" fill="#252729"/>
</svg>
