<svg width="24" height="24" fill="none" xmlns="http://www.w3.org/2000/svg"><path d="m5.549 18.45 3.758-4.13-5.922-1.089a1 1 0 0 0-1.164.801L1.183 19.62a1 1 0 0 0 .802 1.166L7.61 21.82a1 1 0 0 0 1.164-.8l.764-4.118-3.99 1.548z" fill="#252729"/><path d="m5.699 3.923 6.807 7.22 1.193-6.423a1 1 0 0 0-.802-1.166L5.44 2.181a1 1 0 0 0-1.164.8l-1.377 7.42a1 1 0 0 0 .801 1.165l6.296 1.163-4.296-8.806z" fill="#252729" fill-opacity=".4"/><path d="M16.4 4.197a1 1 0 0 0-1.164.8l-1.119 6.009 5.259-2.041-2.807 3.085 4.04.746a1 1 0 0 0 1.165-.8l1.042-5.598a1 1 0 0 0-.802-1.166L16.4 4.197z" fill="#252729"/></svg>