<svg width="16" height="16" viewBox="0 0 16 16" fill="none" xmlns="http://www.w3.org/2000/svg">
<path  d="M10.3207 2H5.01398C2.71398 2 1.33398 3.37333 1.33398 5.68V10.98C1.33398 13.2933 2.71398 14.6667 5.01398 14.6667H10.314C12.6207 14.6667 13.994 13.2933 13.994 10.9867V5.68C14.0007 3.37333 12.6207 2 10.3207 2Z" fill="#7F3F98"/>
<path d="M14.013 1.98669C12.8197 0.786688 11.653 0.760021 10.4263 1.98669L9.67299 2.73335C9.60632 2.80002 9.58632 2.89335 9.61299 2.98002C10.0797 4.61335 11.3863 5.92002 13.0197 6.38669C13.0397 6.39335 13.073 6.39335 13.093 6.39335C13.1597 6.39335 13.2263 6.36669 13.273 6.32002L14.013 5.57335C14.6197 4.96669 14.9197 4.38669 14.9197 3.79335C14.9197 3.19335 14.6197 2.60002 14.013 1.98669Z" fill="#7F3F98"/>
<path d="M11.9061 6.94673C11.7261 6.86006 11.5527 6.77339 11.3927 6.67339C11.2594 6.59339 11.1261 6.50673 10.9994 6.41339C10.8927 6.34673 10.7727 6.24673 10.6527 6.14673C10.6394 6.14006 10.5994 6.10673 10.5461 6.05339C10.3394 5.88673 10.1194 5.66006 9.91275 5.41339C9.89942 5.40006 9.85942 5.36006 9.82608 5.30006C9.75942 5.22673 9.65942 5.10006 9.57275 4.96006C9.49942 4.86673 9.41275 4.73339 9.33275 4.59339C9.23275 4.42673 9.14608 4.26006 9.06608 4.08673C8.97942 3.90006 8.91275 3.72673 8.85275 3.56006L5.26608 7.14673C5.03275 7.38006 4.80608 7.82006 4.75942 8.14673L4.47275 10.1334C4.41275 10.5534 4.52608 10.9467 4.78608 11.2067C5.00608 11.4267 5.30608 11.5401 5.63942 11.5401C5.71275 11.5401 5.78608 11.5334 5.85942 11.5267L7.83942 11.2467C8.16608 11.2001 8.60608 10.9801 8.83942 10.7401L12.4261 7.15339C12.2594 7.10006 12.0927 7.02673 11.9061 6.94673Z" fill="#7F3F98"/>
</svg>
