<svg width="25" height="24" viewBox="0 0 25 24" fill="none" xmlns="http://www.w3.org/2000/svg">
<path opacity="0.4" d="M12.5 2C18.0228 2 22.5 6.47715 22.5 12C22.5 17.5228 18.0228 22 12.5 22C6.97715 22 2.5 17.5228 2.5 12C2.5 6.47715 6.97715 2 12.5 2Z" fill="#77777A"/>
<path d="M12.5 10.25C12.91 10.25 13.25 10.59 13.25 11V16C13.25 16.41 12.91 16.75 12.5 16.75C12.09 16.75 11.75 16.41 11.75 16V11C11.75 10.59 12.09 10.25 12.5 10.25Z" fill="white"/>
<path d="M13.42 8.38012C13.37 8.50012 13.3 8.61012 13.21 8.71012C13.11 8.80012 13 8.87012 12.88 8.92012C12.64 9.02012 12.36 9.02012 12.12 8.92012C12 8.87012 11.89 8.80012 11.79 8.71012C11.7 8.61012 11.63 8.50012 11.58 8.38012C11.53 8.26012 11.5 8.13012 11.5 8.00012C11.5 7.87012 11.53 7.74012 11.58 7.62012C11.63 7.49012 11.7 7.39012 11.79 7.29012C11.89 7.20012 12 7.13012 12.12 7.08012C12.24 7.03012 12.37 7.00012 12.5 7.00012C12.63 7.00012 12.76 7.03012 12.88 7.08012C13 7.13012 13.11 7.20012 13.21 7.29012C13.3 7.39012 13.37 7.49012 13.42 7.62012C13.47 7.74012 13.5 7.87012 13.5 8.00012C13.5 8.13012 13.47 8.26012 13.42 8.38012Z" fill="white"/>
</svg>
