<svg width="25" height="24" viewBox="0 0 25 24" fill="none" xmlns="http://www.w3.org/2000/svg">
<path  d="M12.5 2C18.0228 2 22.5 6.47715 22.5 12C22.5 17.5228 18.0228 22 12.5 22C6.97715 22 2.5 17.5228 2.5 12C2.5 6.47715 6.97715 2 12.5 2Z" fill="#484058"/>
<path d="M12.5 10.25C12.91 10.25 13.25 10.59 13.25 11V16C13.25 16.41 12.91 16.75 12.5 16.75C12.09 16.75 11.75 16.41 11.75 16V11C11.75 10.59 12.09 10.25 12.5 10.25Z" fill="#ffffff"/>
<path d="M13.42 8.38C13.37 8.5 13.3 8.61 13.21 8.71C13.11 8.8 13 8.87 12.88 8.92C12.64 9.02 12.36 9.02 12.12 8.92C12 8.87 11.89 8.8 11.79 8.71C11.7 8.61 11.63 8.5 11.58 8.38C11.53 8.26 11.5 8.13 11.5 8C11.5 7.87 11.53 7.74 11.58 7.62C11.63 7.49 11.7 7.39 11.79 7.29C11.89 7.2 12 7.12999 12.12 7.07999C12.24 7.02999 12.37 6.99999 12.5 6.99999C12.63 6.99999 12.76 7.02999 12.88 7.07999C13 7.12999 13.11 7.2 13.21 7.29C13.3 7.39 13.37 7.49 13.42 7.62C13.47 7.74 13.5 7.87 13.5 8C13.5 8.13 13.47 8.26 13.42 8.38Z" fill="#ffffff"/>
</svg>
