<svg width="12" height="14" viewBox="0 0 12 14" fill="none" xmlns="http://www.w3.org/2000/svg">
<path d="M5.99984 6.83301C6.32206 6.83301 6.59706 6.71912 6.82484 6.49134C7.05262 6.26356 7.1665 5.98856 7.1665 5.66634C7.1665 5.34412 7.05262 5.06912 6.82484 4.84134C6.59706 4.61356 6.32206 4.49967 5.99984 4.49967C5.67762 4.49967 5.40262 4.61356 5.17484 4.84134C4.94706 5.06912 4.83317 5.34412 4.83317 5.66634C4.83317 5.98856 4.94706 6.26356 5.17484 6.49134C5.40262 6.71912 5.67762 6.83301 5.99984 6.83301ZM5.99984 12.3497C7.47762 11.0052 8.56928 9.78579 9.27484 8.69134C9.98039 7.5969 10.3332 6.63301 10.3332 5.79967C10.3332 4.48856 9.91373 3.41634 9.07484 2.58301C8.23595 1.74967 7.21095 1.33301 5.99984 1.33301C4.78873 1.33301 3.76373 1.74967 2.92484 2.58301C2.08595 3.41634 1.6665 4.48856 1.6665 5.79967C1.6665 6.63301 2.02762 7.5969 2.74984 8.69134C3.47206 9.78579 4.55539 11.0052 5.99984 12.3497ZM5.99984 13.6663C4.21095 12.1441 2.87484 10.7302 1.9915 9.42467C1.10817 8.11912 0.666504 6.91079 0.666504 5.79967C0.666504 4.13301 1.20261 2.80523 2.27484 1.81634C3.34706 0.827452 4.58873 0.333008 5.99984 0.333008C7.41095 0.333008 8.65262 0.827452 9.72484 1.81634C10.7971 2.80523 11.3332 4.13301 11.3332 5.79967C11.3332 6.91079 10.8915 8.11912 10.0082 9.42467C9.12484 10.7302 7.78873 12.1441 5.99984 13.6663Z" fill="white"/>
</svg>
