<svg width="32" height="32" fill="none" xmlns="http://www.w3.org/2000/svg"><path opacity=".4" d="M22.667 24.573h-5.333L11.4 28.52c-.88.586-2.066-.04-2.066-1.107v-2.84c-4 0-6.667-2.667-6.667-6.667v-8c0-4 2.667-6.666 6.667-6.666h13.333c4 0 6.667 2.666 6.667 6.666v8c0 4-2.667 6.667-6.667 6.667z" fill="#fff"/><path d="M16.001 16.145c-.546 0-1-.453-1-1v-.28c0-1.546 1.134-2.306 1.56-2.6.494-.333.654-.56.654-.906 0-.667-.547-1.214-1.214-1.214-.666 0-1.213.547-1.213 1.214 0 .546-.453 1-1 1-.547 0-1-.454-1-1a3.215 3.215 0 0 1 3.213-3.214 3.215 3.215 0 0 1 3.214 3.214c0 1.52-1.12 2.28-1.534 2.56-.52.346-.68.573-.68.946v.28c0 .56-.453 1-1 1zM16 19.465c-.56 0-1-.453-1-1 0-.546.453-1 1-1 .547 0 1 .454 1 1 0 .547-.44 1-1 1z" fill="#fff"/></svg>