<svg width="16" height="16" viewBox="0 0 16 16" fill="none" xmlns="http://www.w3.org/2000/svg">
<path opacity="0.4" d="M12.8673 5.28097V8.71431C12.8673 10.7676 11.694 11.6476 9.93396 11.6476H4.07395C3.77395 11.6476 3.48729 11.621 3.22062 11.561C3.05396 11.5343 2.89396 11.4877 2.74729 11.4343C1.74729 11.061 1.14062 10.1943 1.14062 8.71431V5.28097C1.14062 3.22763 2.31395 2.34766 4.07395 2.34766H9.93396C11.4273 2.34766 12.5006 2.98099 12.7873 4.42765C12.834 4.69432 12.8673 4.96763 12.8673 5.28097Z" fill="white"/>
<path d="M14.8654 7.27909V10.7124C14.8654 12.7658 13.6921 13.6458 11.9321 13.6458H6.07208C5.57875 13.6458 5.13209 13.5791 4.74542 13.4325C3.95209 13.1391 3.41208 12.5325 3.21875 11.5591C3.48542 11.6191 3.77208 11.6458 4.07208 11.6458H9.93209C11.6921 11.6458 12.8654 10.7658 12.8654 8.71244V5.27909C12.8654 4.96576 12.8388 4.68578 12.7854 4.42578C14.0521 4.69245 14.8654 5.58576 14.8654 7.27909Z" fill="white"/>
<path d="M7.0022 8.7583C7.97422 8.7583 8.76221 7.97031 8.76221 6.99829C8.76221 6.02627 7.97422 5.23828 7.0022 5.23828C6.03018 5.23828 5.24219 6.02627 5.24219 6.99829C5.24219 7.97031 6.03018 8.7583 7.0022 8.7583Z" fill="white"/>
<path d="M3.1875 5.5C2.91417 5.5 2.6875 5.72667 2.6875 6V8C2.6875 8.27333 2.91417 8.5 3.1875 8.5C3.46083 8.5 3.6875 8.27333 3.6875 8V6C3.6875 5.72667 3.4675 5.5 3.1875 5.5Z" fill="white"/>
<path d="M10.8047 5.5C10.5314 5.5 10.3047 5.72667 10.3047 6V8C10.3047 8.27333 10.5314 8.5 10.8047 8.5C11.078 8.5 11.3047 8.27333 11.3047 8V6C11.3047 5.72667 11.0847 5.5 10.8047 5.5Z" fill="white"/>
</svg>
