<svg width="16" height="16" viewBox="0 0 16 16" fill="none" xmlns="http://www.w3.org/2000/svg">
<path opacity="0.4" d="M11.6886 5.1787C11.642 5.17203 11.5953 5.17203 11.5486 5.1787C10.5153 5.14537 9.69531 4.2987 9.69531 3.2587C9.69531 2.1987 10.5553 1.33203 11.622 1.33203C12.682 1.33203 13.5486 2.19203 13.5486 3.2587C13.542 4.2987 12.722 5.14537 11.6886 5.1787Z" fill="white"/>
<path opacity="0.4" d="M13.8636 9.80026C13.117 10.3003 12.0703 10.4869 11.1036 10.3603C11.357 9.81359 11.4903 9.20694 11.497 8.56694C11.497 7.90027 11.3503 7.26694 11.0703 6.7136C12.057 6.58027 13.1036 6.76693 13.857 7.26693C14.9103 7.96026 14.9103 9.10026 13.8636 9.80026Z" fill="white"/>
<path opacity="0.4" d="M4.28969 5.1787C4.33635 5.17203 4.38302 5.17203 4.42969 5.1787C5.46302 5.14537 6.28302 4.2987 6.28302 3.2587C6.28302 2.1987 5.42302 1.33203 4.35635 1.33203C3.29635 1.33203 2.42969 2.19203 2.42969 3.2587C2.43635 4.2987 3.25635 5.14537 4.28969 5.1787Z" fill="white"/>
<path opacity="0.4" d="M4.36479 8.56706C4.36479 9.21373 4.50479 9.82706 4.75812 10.3804C3.81812 10.4804 2.83813 10.2804 2.11813 9.80706C1.06479 9.10706 1.06479 7.96706 2.11813 7.26706C2.83146 6.78706 3.83812 6.59373 4.78479 6.7004C4.51146 7.2604 4.36479 7.89373 4.36479 8.56706Z" fill="white"/>
<path d="M8.08312 10.58C8.02979 10.5733 7.96979 10.5733 7.90979 10.58C6.68313 10.54 5.70312 9.53333 5.70312 8.29333C5.70312 7.02667 6.72313 6 7.99646 6C9.26313 6 10.2898 7.02667 10.2898 8.29333C10.2898 9.53333 9.31646 10.54 8.08312 10.58Z" fill="white"/>
<path d="M5.91125 11.9617C4.90458 12.6351 4.90458 13.7417 5.91125 14.4084C7.05792 15.1751 8.93792 15.1751 10.0846 14.4084C11.0913 13.7351 11.0913 12.6284 10.0846 11.9617C8.94458 11.1951 7.06458 11.1951 5.91125 11.9617Z" fill="white"/>
</svg>
