<svg width="16" height="16" viewBox="0 0 16 16" fill="none" xmlns="http://www.w3.org/2000/svg">
<path d="M14.4205 9.77354L14.1471 11.0135C13.6738 13.1469 12.0005 14.6669 9.58715 14.6669H6.41381C4.00048 14.6669 2.32715 13.1469 1.85381 11.0135L1.58048 9.77354C1.44714 9.16687 1.80714 8.4802 2.38714 8.24687L3.33381 7.86686L7.00715 6.39353C7.32715 6.26687 7.66715 6.2002 8.00048 6.2002C8.33381 6.2002 8.67381 6.26687 8.99381 6.39353L12.6671 7.86686L13.6138 8.24687C14.1938 8.4802 14.5538 9.16687 14.4205 9.77354Z" fill="#252729"/>
<path opacity="0.4" d="M12.6663 5.3335V7.86682L8.993 6.39349C8.353 6.14016 7.64635 6.14016 7.00635 6.39349L3.33301 7.86682V5.3335C3.33301 4.2335 4.23301 3.3335 5.33301 3.3335H10.6663C11.7663 3.3335 12.6663 4.2335 12.6663 5.3335Z" fill="#252729"/>
<path d="M9.66634 3.3335H6.33301V2.00016C6.33301 1.6335 6.63301 1.3335 6.99967 1.3335H8.99967C9.36634 1.3335 9.66634 1.6335 9.66634 2.00016V3.3335Z" fill="#252729"/>
</svg>
