<svg width="16" height="16" viewBox="0 0 16 16" fill="none" xmlns="http://www.w3.org/2000/svg">
<path opacity="0.4" d="M10.7959 1.33203H5.20927C2.7826 1.33203 1.33594 2.7787 1.33594 5.20536V10.7854C1.33594 13.2187 2.7826 14.6654 5.20927 14.6654H10.7893C13.2159 14.6654 14.6626 13.2187 14.6626 10.792V5.20536C14.6693 2.7787 13.2226 1.33203 10.7959 1.33203Z" fill="#252729"/>
<path d="M4.58594 12.5987C4.3126 12.5987 4.08594 12.3721 4.08594 12.0987V10.7188C4.08594 10.4454 4.3126 10.2188 4.58594 10.2188C4.85927 10.2188 5.08594 10.4454 5.08594 10.7188V12.0987C5.08594 12.3787 4.85927 12.5987 4.58594 12.5987Z" fill="#252729"/>
<path d="M8 12.5987C7.72667 12.5987 7.5 12.372 7.5 12.0987V9.33203C7.5 9.0587 7.72667 8.83203 8 8.83203C8.27333 8.83203 8.5 9.0587 8.5 9.33203V12.0987C8.5 12.3787 8.27333 12.5987 8 12.5987Z" fill="#252729"/>
<path d="M11.4141 12.5998C11.1407 12.5998 10.9141 12.3731 10.9141 12.0998V7.95312C10.9141 7.67979 11.1407 7.45312 11.4141 7.45312C11.6874 7.45312 11.9141 7.67979 11.9141 7.95312V12.0998C11.9141 12.3798 11.6941 12.5998 11.4141 12.5998Z" fill="#252729"/>
<path d="M11.914 3.87844C11.914 3.8451 11.9006 3.8051 11.894 3.77177C11.8873 3.7451 11.8806 3.71177 11.874 3.6851C11.8606 3.65844 11.8406 3.63844 11.8273 3.61177C11.8073 3.5851 11.7873 3.55177 11.7606 3.53177C11.754 3.5251 11.754 3.51844 11.7473 3.51844C11.7273 3.5051 11.7073 3.49844 11.6873 3.4851C11.6606 3.4651 11.6273 3.4451 11.594 3.43177C11.5606 3.41844 11.5273 3.41844 11.494 3.41177C11.4673 3.4051 11.4473 3.39844 11.4206 3.39844H9.4673C9.19397 3.39844 8.9673 3.6251 8.9673 3.89844C8.9673 4.17177 9.19397 4.39844 9.4673 4.39844H10.3006C8.71397 6.0651 6.71397 7.23844 4.4673 7.8051C4.20064 7.87177 4.03397 8.1451 4.10064 8.41177C4.15397 8.63844 4.36064 8.79177 4.5873 8.79177C4.6273 8.79177 4.6673 8.7851 4.7073 8.77844C7.0873 8.1851 9.21397 6.95177 10.914 5.2051V5.85177C10.914 6.1251 11.1406 6.35177 11.414 6.35177C11.6873 6.35177 11.914 6.1251 11.914 5.85177V3.89844C11.914 3.89177 11.914 3.8851 11.914 3.87844Z" fill="#252729"/>
</svg>
