<svg xmlns="http://www.w3.org/2000/svg" width="28" height="28"><defs><style>.cls-5{fill:none}.cls-4{stroke:none}</style></defs><g id="User" transform="translate(-124 -849)"><g id="Head" transform="translate(129 849)" style="stroke-width:2px;stroke-linecap:round;stroke-linejoin:round;fill:#fff;stroke:#615141"><circle class="cls-4" cx="9" cy="9" r="9"/><circle class="cls-5" cx="9" cy="9" r="8"/></g><path id="Colour" d="M.5 1A3.972 3.972 0 0 0 4 3a3.972 3.972 0 0 0 3.5-2" transform="translate(134 858.5)" style="stroke:#f8b332;fill:none;stroke-width:2px;stroke-linecap:round;stroke-linejoin:round"/><g id="Shape" style="stroke-width:2px;fill:#fff;stroke:#615141"><path class="cls-4" d="M4 0h20a4 4 0 0 1 4 4v2a2 2 0 0 1-2 2H2a2 2 0 0 1-2-2V4a4 4 0 0 1 4-4z" transform="translate(124 869)"/><path class="cls-5" d="M4 1h20a3 3 0 0 1 3 3v2a1 1 0 0 1-1 1H2a1 1 0 0 1-1-1V4a3 3 0 0 1 3-3z" transform="translate(124 869)"/></g></g></svg>