<svg width="25" height="24" viewBox="0 0 25 24" fill="none" xmlns="http://www.w3.org/2000/svg">
<path opacity="0.4" d="M17.6797 5.25C15.9697 5.25 13.9297 5.9 13.9297 9V15C13.9297 18.1 15.9697 18.75 17.6797 18.75C19.3897 18.75 21.4297 18.1 21.4297 15V9C21.4297 5.9 19.3897 5.25 17.6797 5.25Z" fill="#252729"/>
<path opacity="0.4" d="M7.32031 5.25C5.61031 5.25 3.57031 5.9 3.57031 9V15C3.57031 18.1 5.61031 18.75 7.32031 18.75C9.03031 18.75 11.0703 18.1 11.0703 15V9C11.0703 5.9 9.03031 5.25 7.32031 5.25Z" fill="#252729"/>
<path d="M13.9303 11.25H11.0703V12.75H13.9303V11.25Z" fill="#252729"/>
<path d="M23 15.25C22.59 15.25 22.25 14.91 22.25 14.5V9.5C22.25 9.09 22.59 8.75 23 8.75C23.41 8.75 23.75 9.09 23.75 9.5V14.5C23.75 14.91 23.41 15.25 23 15.25Z" fill="#252729"/>
<path d="M2 15.25C1.59 15.25 1.25 14.91 1.25 14.5V9.5C1.25 9.09 1.59 8.75 2 8.75C2.41 8.75 2.75 9.09 2.75 9.5V14.5C2.75 14.91 2.41 15.25 2 15.25Z" fill="#252729"/>
</svg>
